<svg width="24" height="24" viewBox="0 0 24 24" fill="none" xmlns="http://www.w3.org/2000/svg">
<path d="M5.31094 13.2018C6.94292 15.2178 9.36689 17.4258 10.2789 18.1698C12.1509 19.6578 13.7828 20.6178 15.4148 21.2178C16.0868 21.4578 16.8068 21.6738 17.5268 21.6738C18.1028 21.6738 18.6548 21.5538 19.2068 21.2178C19.8548 20.8098 20.3348 20.4258 20.7668 19.9698L20.8148 19.8978C21.1028 19.6098 21.4388 19.2258 21.5828 18.7698C21.7748 18.1458 21.5588 17.4498 21.3188 17.0178C20.6708 15.9138 19.4228 15.0738 19.0388 14.8578C18.3908 14.4498 17.5028 14.0658 16.5668 14.5458C16.1828 14.7378 15.8948 15.0018 15.6068 15.2658C15.5348 15.3378 15.4388 15.4098 15.3668 15.4818C15.3188 15.5298 15.2948 15.5538 15.2468 15.5778C15.0548 15.7458 14.9588 15.8178 14.8148 15.8418C14.6228 15.8658 14.4308 15.8418 14.2148 15.7698C13.6388 15.5538 13.1589 15.1218 12.6309 14.6418C11.3349 13.4178 10.0389 12.1458 8.8149 10.8258C8.3109 10.2978 7.90291 9.81784 7.68691 9.24184C7.61491 9.02584 7.59091 8.80984 7.61491 8.64184C7.63891 8.49784 7.71091 8.40184 7.87891 8.20984C7.90291 8.16184 7.95091 8.13784 7.97491 8.08984C8.04691 8.01784 8.11891 7.92184 8.19091 7.84984C8.4549 7.56184 8.7189 7.27384 8.9109 6.88984C9.39089 5.95384 9.0069 5.06584 8.5989 4.41784C8.3829 4.03384 7.54291 2.78584 6.43893 2.13784C6.00693 1.89784 5.31094 1.68184 4.68694 1.87384C4.23095 2.01784 3.87095 2.37784 3.55896 2.64184L3.48696 2.71384C3.05496 3.12184 2.64697 3.62584 2.23897 4.27384C1.49498 5.49784 1.83098 6.88984 2.26297 8.06584C2.86297 9.74584 3.87095 11.4258 5.31094 13.2018Z" fill="white"/>
<path d="M19.8489 9.5522C19.7447 7.9898 19.0816 6.52316 17.9815 5.42108C16.8832 4.32044 15.4183 3.65588 13.8561 3.55076C13.5389 3.52916 13.2989 3.2546 13.32 2.93708C13.3416 2.6198 13.6135 2.37932 13.9337 2.4014C15.7749 2.52524 17.5022 3.30884 18.797 4.60724C20.0944 5.90612 20.8763 7.63484 20.9987 9.47564C21.0198 9.79292 20.7794 10.0672 20.4621 10.0884C20.4489 10.0893 20.4364 10.0898 20.4237 10.0898C20.1222 10.0898 19.869 9.85628 19.8489 9.5522Z" fill="white"/>
<path d="M13.1282 5.73931C13.1498 5.42251 13.4193 5.18299 13.7418 5.20363C14.9025 5.28187 15.9918 5.77603 16.8083 6.59443C17.6252 7.41139 18.1175 8.50075 18.1952 9.66139C18.2164 9.97867 17.9764 10.2535 17.6591 10.2746C17.6459 10.2756 17.6329 10.276 17.6202 10.276C17.3192 10.276 17.0661 10.0425 17.0459 9.73843C16.9869 8.85619 16.6132 8.02891 15.9935 7.40875C15.3734 6.78763 14.5461 6.41275 13.6639 6.35323C13.3466 6.33187 13.1071 6.05707 13.1282 5.73931Z" fill="white"/>
<path d="M15.1311 10.4438C15.1179 10.4448 15.1054 10.4453 15.0931 10.4453C14.7917 10.4453 14.5385 10.2113 14.5188 9.9067C14.5061 9.71446 14.4415 9.4351 14.2042 9.1975C13.9661 8.95942 13.6853 8.89318 13.4916 8.88022C13.1744 8.85766 12.9353 8.58262 12.9572 8.2651C12.979 7.94758 13.2507 7.70998 13.5718 7.73062C14.1226 7.76902 14.6364 8.00062 15.0192 8.38318C15.4018 8.76718 15.6324 9.28126 15.6679 9.83158C15.6888 10.1489 15.4483 10.4232 15.1311 10.4438Z" fill="white"/>
</svg>
