<svg width="62" height="58" viewBox="0 0 62 58" fill="none" xmlns="http://www.w3.org/2000/svg">
<path d="M16.9204 38.3143L17.3255 37.6883L16.7837 37.3377L16.359 37.8236L16.9204 38.3143ZM23.8525 42.8001L23.4474 43.4261L23.9876 43.7757L24.4125 43.2924L23.8525 42.8001ZM61.5676 0.697762C61.5412 0.286802 61.1866 -0.0249163 60.7756 0.00151973L54.0786 0.43232C53.6677 0.458756 53.3559 0.813336 53.3824 1.2243C53.4088 1.63526 53.7634 1.94697 54.1744 1.92054L60.1272 1.5376L60.5102 7.49048C60.5366 7.90144 60.8912 8.21316 61.3021 8.18672C61.7131 8.16028 62.0248 7.8057 61.9984 7.39474L61.5676 0.697762ZM1.76917 56.7803C2.04019 56.4703 2.00855 55.9992 1.6985 55.7282C1.38845 55.4572 0.917391 55.4888 0.646366 55.7989L1.76917 56.7803ZM2.03278 54.2128C1.76175 54.5229 1.79339 54.9939 2.10344 55.265C2.4135 55.536 2.88455 55.5043 3.15558 55.1943L2.03278 54.2128ZM4.07985 54.1369C4.35088 53.8269 4.31924 53.3558 4.00919 53.0848C3.69913 52.8138 3.22808 52.8454 2.95705 53.1555L4.07985 54.1369ZM4.34346 51.5694C4.07244 51.8794 4.10408 52.3505 4.41413 52.6215C4.72418 52.8926 5.19524 52.8609 5.46626 52.5509L4.34346 51.5694ZM6.39054 51.4935C6.66156 51.1834 6.62993 50.7124 6.31987 50.4414C6.00982 50.1703 5.53876 50.202 5.26774 50.512L6.39054 51.4935ZM6.65415 48.926C6.38313 49.236 6.41476 49.7071 6.72482 49.9781C7.03487 50.2491 7.50593 50.2175 7.77695 49.9074L6.65415 48.926ZM8.70123 48.8501C8.97225 48.54 8.94061 48.069 8.63056 47.7979C8.32051 47.5269 7.84945 47.5585 7.57843 47.8686L8.70123 48.8501ZM8.96484 46.2825C8.69381 46.5926 8.72545 47.0637 9.0355 47.3347C9.34556 47.6057 9.81661 47.5741 10.0876 47.264L8.96484 46.2825ZM11.0119 46.2066C11.2829 45.8966 11.2513 45.4255 10.9412 45.1545C10.6312 44.8835 10.1601 44.9151 9.88911 45.2252L11.0119 46.2066ZM11.2755 43.6391C11.0045 43.9492 11.0361 44.4202 11.3462 44.6913C11.6562 44.9623 12.1273 44.9306 12.3983 44.6206L11.2755 43.6391ZM13.3226 43.5632C13.5936 43.2532 13.562 42.7821 13.2519 42.5111C12.9419 42.2401 12.4708 42.2717 12.1998 42.5818L13.3226 43.5632ZM13.5862 40.9957C13.3152 41.3057 13.3468 41.7768 13.6569 42.0478C13.9669 42.3189 14.438 42.2872 14.709 41.9772L13.5862 40.9957ZM15.6333 40.9198C15.9043 40.6097 15.8727 40.1387 15.5626 39.8677C15.2526 39.5966 14.7815 39.6283 14.5105 39.9383L15.6333 40.9198ZM15.8969 38.3523C15.6259 38.6623 15.6575 39.1334 15.9676 39.4044C16.2776 39.6754 16.7487 39.6438 17.0197 39.3337L15.8969 38.3523ZM17.2085 39.3889C17.5543 39.6126 18.0159 39.5137 18.2396 39.168C18.4634 38.8223 18.3645 38.3606 18.0187 38.1369L17.2085 39.3889ZM20.0984 39.4826C19.7526 39.2589 19.291 39.3578 19.0672 39.7035C18.8435 40.0493 18.9424 40.5109 19.2882 40.7347L20.0984 39.4826ZM20.6746 41.6318C21.0203 41.8555 21.4819 41.7566 21.7057 41.4109C21.9294 41.0652 21.8305 40.6035 21.4848 40.3798L20.6746 41.6318ZM23.5644 41.7255C23.2187 41.5018 22.757 41.6007 22.5333 41.9465C22.3096 42.2922 22.4085 42.7538 22.7542 42.9776L23.5644 41.7255ZM24.9055 42.7317C25.1774 42.4224 25.147 41.9513 24.8378 41.6794C24.5285 41.4075 24.0573 41.4378 23.7854 41.7471L24.9055 42.7317ZM25.2643 40.0649C24.9924 40.3742 25.0227 40.8453 25.332 41.1172C25.6412 41.3891 26.1124 41.3588 26.3843 41.0495L25.2643 40.0649ZM27.3702 39.9281C27.6421 39.6188 27.6118 39.1477 27.3025 38.8758C26.9932 38.6039 26.5221 38.6342 26.2502 38.9435L27.3702 39.9281ZM27.729 37.2613C27.4571 37.5706 27.4874 38.0417 27.7967 38.3136C28.106 38.5855 28.5771 38.5552 28.849 38.2459L27.729 37.2613ZM29.8349 37.1245C30.1068 36.8152 30.0765 36.344 29.7672 36.0721C29.4579 35.8002 28.9868 35.8305 28.7149 36.1398L29.8349 37.1245ZM30.1937 34.4576C29.9218 34.7669 29.9521 35.2381 30.2614 35.51C30.5707 35.7819 31.0419 35.7516 31.3138 35.4423L30.1937 34.4576ZM32.2996 34.3208C32.5715 34.0115 32.5412 33.5404 32.232 33.2685C31.9227 32.9966 31.4515 33.0269 31.1796 33.3362L32.2996 34.3208ZM32.6585 31.654C32.3866 31.9633 32.4169 32.4344 32.7262 32.7063C33.0354 32.9782 33.5066 32.9479 33.7785 32.6386L32.6585 31.654ZM34.7644 31.5172C35.0363 31.2079 35.006 30.7368 34.6967 30.4649C34.3874 30.193 33.9163 30.2233 33.6444 30.5326L34.7644 31.5172ZM35.1232 28.8504C34.8513 29.1597 34.8816 29.6308 35.1909 29.9027C35.5002 30.1746 35.9713 30.1443 36.2432 29.835L35.1232 28.8504ZM37.2291 28.7136C37.501 28.4043 37.4707 27.9331 37.1614 27.6612C36.8521 27.3893 36.381 27.4196 36.1091 27.7289L37.2291 28.7136ZM37.5879 26.0467C37.316 26.356 37.3463 26.8272 37.6556 27.0991C37.9649 27.371 38.4361 27.3407 38.708 27.0314L37.5879 26.0467ZM39.6938 25.9099C39.9657 25.6006 39.9354 25.1295 39.6261 24.8576C39.3169 24.5857 38.8457 24.616 38.5738 24.9253L39.6938 25.9099ZM40.0527 23.2431C39.7808 23.5524 39.8111 24.0235 40.1204 24.2954C40.4296 24.5673 40.9008 24.537 41.1727 24.2277L40.0527 23.2431ZM42.1586 23.1063C42.4305 22.797 42.4002 22.3259 42.0909 22.054C41.7816 21.7821 41.3105 21.8124 41.0386 22.1217L42.1586 23.1063ZM42.5174 20.4395C42.2455 20.7488 42.2758 21.2199 42.5851 21.4918C42.8944 21.7637 43.3655 21.7334 43.6374 21.4241L42.5174 20.4395ZM44.6233 20.3027C44.8952 19.9934 44.8649 19.5222 44.5556 19.2503C44.2463 18.9784 43.7752 19.0087 43.5033 19.318L44.6233 20.3027ZM44.9821 17.6358C44.7102 17.9451 44.7405 18.4163 45.0498 18.6882C45.3591 18.9601 45.8302 18.9298 46.1021 18.6205L44.9821 17.6358ZM47.088 17.499C47.3599 17.1897 47.3296 16.7186 47.0203 16.4467C46.7111 16.1748 46.2399 16.2051 45.968 16.5144L47.088 17.499ZM47.4469 14.8322C47.175 15.1415 47.2053 15.6126 47.5145 15.8845C47.8238 16.1564 48.295 16.1261 48.5669 15.8168L47.4469 14.8322ZM49.5528 14.6954C49.8247 14.3861 49.7944 13.915 49.4851 13.6431C49.1758 13.3712 48.7046 13.4015 48.4327 13.7108L49.5528 14.6954ZM49.9116 12.0286C49.6397 12.3379 49.67 12.809 49.9793 13.0809C50.2886 13.3528 50.7597 13.3225 51.0316 13.0132L49.9116 12.0286ZM52.0175 11.8918C52.2894 11.5825 52.2591 11.1113 51.9498 10.8394C51.6405 10.5675 51.1694 10.5978 50.8975 10.9071L52.0175 11.8918ZM52.3763 9.22494C52.1044 9.53423 52.1347 10.0054 52.444 10.2773C52.7533 10.5492 53.2244 10.5189 53.4963 10.2096L52.3763 9.22494ZM54.4822 9.08813C54.7541 8.77884 54.7238 8.3077 54.4145 8.0358C54.1053 7.7639 53.6341 7.79421 53.3622 8.10349L54.4822 9.08813ZM54.841 6.42131C54.5691 6.7306 54.5995 7.20174 54.9087 7.47364C55.218 7.74554 55.6892 7.71524 55.9611 7.40595L54.841 6.42131ZM56.947 6.2845C57.2189 5.97521 57.1886 5.50407 56.8793 5.23217C56.57 4.96027 56.0988 4.99058 55.8269 5.29986L56.947 6.2845ZM57.3058 3.61768C57.0339 3.92697 57.0642 4.39811 57.3735 4.67001C57.6828 4.94191 58.1539 4.9116 58.4258 4.60232L57.3058 3.61768ZM59.4117 3.48087C59.6836 3.17158 59.6533 2.70044 59.344 2.42854C59.0347 2.15664 58.5636 2.18695 58.2917 2.49623L59.4117 3.48087ZM59.7705 0.81405C59.4986 1.12334 59.5289 1.59448 59.8382 1.86638C60.1475 2.13828 60.6186 2.10797 60.8905 1.79869L59.7705 0.81405ZM1.30703 57.309L1.76917 56.7803L0.646366 55.7989L0.184229 56.3276L1.30703 57.309ZM3.15558 55.1943L4.07985 54.1369L2.95705 53.1555L2.03278 54.2128L3.15558 55.1943ZM5.46626 52.5509L6.39054 51.4935L5.26774 50.512L4.34346 51.5694L5.46626 52.5509ZM7.77695 49.9074L8.70123 48.8501L7.57843 47.8686L6.65415 48.926L7.77695 49.9074ZM10.0876 47.264L11.0119 46.2066L9.88911 45.2252L8.96484 46.2825L10.0876 47.264ZM12.3983 44.6206L13.3226 43.5632L12.1998 42.5818L11.2755 43.6391L12.3983 44.6206ZM14.709 41.9772L15.6333 40.9198L14.5105 39.9383L13.5862 40.9957L14.709 41.9772ZM17.0197 39.3337L17.4818 38.805L16.359 37.8236L15.8969 38.3523L17.0197 39.3337ZM16.5153 38.9403L17.2085 39.3889L18.0187 38.1369L17.3255 37.6883L16.5153 38.9403ZM19.2882 40.7347L20.6746 41.6318L21.4848 40.3798L20.0984 39.4826L19.2882 40.7347ZM22.7542 42.9776L23.4474 43.4261L24.2576 42.1741L23.5644 41.7255L22.7542 42.9776ZM24.4125 43.2924L24.9055 42.7317L23.7854 41.7471L23.2925 42.3078L24.4125 43.2924ZM26.3843 41.0495L27.3702 39.9281L26.2502 38.9435L25.2643 40.0649L26.3843 41.0495ZM28.849 38.2459L29.8349 37.1245L28.7149 36.1398L27.729 37.2613L28.849 38.2459ZM31.3138 35.4423L32.2996 34.3208L31.1796 33.3362L30.1937 34.4576L31.3138 35.4423ZM33.7785 32.6386L34.7644 31.5172L33.6444 30.5326L32.6585 31.654L33.7785 32.6386ZM36.2432 29.835L37.2291 28.7136L36.1091 27.7289L35.1232 28.8504L36.2432 29.835ZM38.708 27.0314L39.6938 25.9099L38.5738 24.9253L37.5879 26.0467L38.708 27.0314ZM41.1727 24.2277L42.1586 23.1063L41.0386 22.1217L40.0527 23.2431L41.1727 24.2277ZM43.6374 21.4241L44.6233 20.3027L43.5033 19.318L42.5174 20.4395L43.6374 21.4241ZM46.1021 18.6205L47.088 17.499L45.968 16.5144L44.9821 17.6358L46.1021 18.6205ZM48.5669 15.8168L49.5528 14.6954L48.4327 13.7108L47.4469 14.8322L48.5669 15.8168ZM51.0316 13.0132L52.0175 11.8918L50.8975 10.9071L49.9116 12.0286L51.0316 13.0132ZM53.4963 10.2096L54.4822 9.08813L53.3622 8.10349L52.3763 9.22494L53.4963 10.2096ZM55.9611 7.40595L56.947 6.2845L55.8269 5.29986L54.841 6.42131L55.9611 7.40595ZM58.4258 4.60232L59.4117 3.48087L58.2917 2.49623L57.3058 3.61768L58.4258 4.60232ZM60.8905 1.79869L61.3835 1.23795L60.2635 0.253311L59.7705 0.81405L60.8905 1.79869Z" fill="black"/>
<path d="M0.745629 0.745629V56.8183H60.8235" stroke="black" stroke-width="1.48148" stroke-linecap="round"/>
<circle cx="36.8057" cy="24.2652" r="16.0208" fill="white"/>
<circle cx="35.8153" cy="23.2645" r="16.0208" stroke="black" stroke-width="1.48148"/>
<path d="M46.8335 24.2641C47.3865 24.2641 47.8395 24.7133 47.7893 25.264C47.6887 26.3676 47.422 27.4517 46.9964 28.479C46.4429 29.8153 45.6316 31.0296 44.6088 32.0523C43.5861 33.0751 42.3718 33.8864 41.0355 34.4399C39.6992 34.9934 38.267 35.2783 36.8206 35.2783C35.3741 35.2783 33.9419 34.9934 32.6056 34.4399C31.2693 33.8864 30.0551 33.0751 29.0323 32.0523C28.0095 31.0296 27.1982 29.8153 26.6447 28.479C26.2191 27.4517 25.9524 26.3676 25.8518 25.264C25.8016 24.7133 26.2546 24.2641 26.8076 24.2641L36.8206 24.2641H46.8335Z" fill="#F0F9FF"/>
<path d="M45.9888 27.4786C46.4144 26.4512 46.6811 25.3671 46.7817 24.2635C46.8319 23.7128 46.3789 23.2636 45.8259 23.2636H35.8129L25.8 23.2636C25.247 23.2636 24.794 23.7128 24.8442 24.2635C24.9448 25.3671 25.2115 26.4512 25.6371 27.4786C26.1906 28.8149 27.0019 30.0291 28.0247 31.0518C29.0474 32.0746 30.2617 32.8859 31.598 33.4394C32.9343 33.993 34.3665 34.2778 35.8129 34.2778C37.2594 34.2778 38.6916 33.993 40.0279 33.4394C41.3642 32.8859 42.5784 32.0746 43.6012 31.0518C44.624 30.0291 45.4353 28.8149 45.9888 27.4786Z" stroke="#C7E0F2" stroke-width="1.48148"/>
</svg>
