<svg width="69" height="55" viewBox="0 0 69 55" fill="none" xmlns="http://www.w3.org/2000/svg">
<circle cx="46.7994" cy="20.3871" r="18.8275" fill="#F0F9FF"/>
<circle cx="45.1617" cy="19.5682" r="18.8275" stroke="black" stroke-width="1.48148"/>
<line x1="38.6102" y1="10.6402" x2="52.5262" y2="10.6403" stroke="white" stroke-width="1.48148"/>
<line x1="38.6102" y1="15.5521" x2="52.5262" y2="15.5521" stroke="white" stroke-width="1.48148"/>
<path d="M39.4261 10.6432L42.7362 10.6431C43.9641 10.6427 48.0213 10.9719 48.0213 15.4738C48.0213 19.567 43.1097 19.567 39.4261 19.567L48.0213 28.5714" stroke="white" stroke-width="1.48148" stroke-linejoin="bevel"/>
<line x1="37.7906" y1="10.6412" x2="51.7066" y2="10.6412" stroke="black" stroke-width="1.48148"/>
<line x1="37.7906" y1="15.553" x2="51.7066" y2="15.553" stroke="black" stroke-width="1.48148"/>
<path d="M38.6586 10.6412L41.9634 10.6411C43.1913 10.6407 47.2017 10.9737 47.2017 15.4755C47.2017 19.5687 42.2902 19.5687 38.6065 19.5687L47.2017 28.5732" stroke="black" stroke-width="1.48148" stroke-linejoin="bevel"/>
<path d="M13.2335 32.5743L23.0566 27.6628C24.9666 26.7078 28.3774 25.2069 32.8796 26.8442C36.32 28.0953 42.919 30.7269 46.3863 32.1649C52.1604 34.5595 49.9698 40.422 44.5813 39.477C46.0372 39.8093 47.5673 39.5603 48.8442 38.78L62.3488 30.5277C66.851 27.6626 70.1254 34.1528 66.851 36.2578C62.2669 39.2047 51.2979 46.3537 45.977 49.7645C45.1975 50.264 43.3575 50.4193 41.0655 49.7645C38.7735 49.1096 29.196 45.9444 24.6937 44.4437L21.0101 46.0808L13.2335 32.5743Z" fill="white"/>
<path d="M14.0553 34.212L23.8783 29.3005C25.7884 28.3454 29.1992 26.8446 33.7014 28.4819C37.1418 29.733 43.7407 32.3646 47.2081 33.8026C52.9822 36.1971 50.7916 42.0597 45.4031 41.1147C46.859 41.447 48.389 41.1979 49.6659 40.4177L63.1706 32.1653C67.6728 29.3003 70.9471 35.7905 67.6728 37.8954C63.0887 40.8424 52.1196 47.9914 46.7988 51.4022C46.0193 51.9017 44.1793 52.057 41.8873 51.4022C39.5952 50.7473 30.0177 47.5821 25.5155 46.0813L21.8319 47.7185L14.0553 34.212Z" fill="white"/>
<path d="M12.3699 31.1116L3.77663 36.022C2.98893 36.4721 2.71745 37.477 3.17132 38.2625L12.1619 53.8231C12.6178 54.6121 13.6301 54.8771 14.4141 54.4125L22.6712 49.5194C23.4338 49.0675 23.6982 48.0908 23.2677 47.3159L14.6133 31.738C14.1705 30.9408 13.1617 30.6592 12.3699 31.1116Z" fill="#DAEDFB"/>
<path d="M10.1592 30.6211L1.56596 35.5316C0.778257 35.9817 0.506782 36.9865 0.960655 37.7721L9.95121 53.3326C10.4071 54.1217 11.4195 54.3866 12.2034 53.922L20.4605 49.0289C21.2231 48.577 21.4875 47.6003 21.057 46.8254L12.4026 31.2475C11.9598 30.4504 10.951 30.1687 10.1592 30.6211Z" stroke="black" stroke-width="1.48148"/>
<path d="M43.5213 39.2132C49.6607 41.1778 52.5257 34.711 46.3863 32.1649C42.919 30.7269 36.32 28.0953 32.8796 26.8442C28.3774 25.2069 24.9666 26.7078 23.0566 27.6628L13.2335 32.5743L21.0101 46.0808L24.6937 44.4437C29.196 45.9444 38.7735 49.1096 41.0655 49.7645C43.3575 50.4193 45.1975 50.264 45.977 49.7645C51.2979 46.3537 62.2669 39.2047 66.851 36.2578C70.1254 34.1528 66.851 27.6626 62.3488 30.5277L48.8442 38.78C47.5337 39.5808 45.9565 39.822 44.4666 39.4495L43.5213 39.2132ZM43.5213 39.2132C41.0655 38.4274 37.3819 37.3219 35.3354 36.6671L43.5213 39.2132Z" stroke="black" stroke-width="1.48148"/>
</svg>
