<svg width="24" height="24" viewBox="0 0 24 24" fill="none" xmlns="http://www.w3.org/2000/svg">
<path d="M12 0C9.62663 0 7.30655 0.703788 5.33316 2.02236C3.35977 3.34094 1.8217 5.21508 0.913451 7.4078C0.00519936 9.60051 -0.232441 12.0133 0.230582 14.3411C0.693604 16.6689 1.83649 18.807 3.51472 20.4853C5.19295 22.1635 7.33115 23.3064 9.65892 23.7694C11.9867 24.2324 14.3995 23.9948 16.5922 23.0865C18.7849 22.1783 20.6591 20.6402 21.9776 18.6668C23.2962 16.6934 24 14.3734 24 12C23.994 8.81926 22.7277 5.77052 20.4786 3.52139C18.2295 1.27226 15.1807 0.00604131 12 0ZM15.9429 14.3429C16.1079 14.5629 16.1881 14.8352 16.1686 15.1096C16.1491 15.384 16.0312 15.6422 15.8367 15.8367C15.6422 16.0312 15.384 16.149 15.1096 16.1685C14.8352 16.1881 14.5629 16.1079 14.3429 15.9429L12 13.5971L9.65715 15.9429C9.43706 16.1079 9.16483 16.1881 8.89042 16.1685C8.616 16.149 8.35784 16.0312 8.16331 15.8367C7.96878 15.6422 7.85095 15.384 7.83145 15.1096C7.81195 14.8352 7.89208 14.5629 8.05715 14.3429L10.4029 12L8.05715 9.65714C7.89208 9.43706 7.81195 9.16482 7.83145 8.89041C7.85095 8.616 7.96878 8.35783 8.16331 8.1633C8.35784 7.96878 8.616 7.85095 8.89042 7.83144C9.16483 7.81194 9.43706 7.89208 9.65715 8.05714L12 10.4029L14.3429 8.05714C14.5629 7.89208 14.8352 7.81194 15.1096 7.83144C15.384 7.85095 15.6422 7.96878 15.8367 8.1633C16.0312 8.35783 16.1491 8.616 16.1686 8.89041C16.1881 9.16482 16.1079 9.43706 15.9429 9.65714L13.5971 12L15.9429 14.3429Z" fill="#DA1E28"/>
</svg>
