<svg width="32" height="15" viewBox="0 0 32 15" fill="none" xmlns="http://www.w3.org/2000/svg">
<path d="M16.0472 3.50646L15.535 4.04638C15.8321 4.32823 16.3011 4.31705 16.5845 4.02136L16.0472 3.50646ZM28.6315 3.50646L29.1437 2.96655V2.96655L28.6315 3.50646ZM3.46279 3.50671L3.94616 4.07256V4.07256L3.46279 3.50671ZM2.0244 14.1399L1.35333 14.4616L1.55587 14.8841H2.0244V14.1399ZM30.1452 14.1399V14.8841H30.6251L30.8231 14.4469L30.1452 14.1399ZM16.5845 4.02136C17.4956 3.07056 19.184 1.91697 21.2306 1.58326C23.2337 1.25666 25.6478 1.70172 28.1194 4.04637L29.1437 2.96655C26.3418 0.30845 23.4625 -0.288718 20.9911 0.114247C18.5634 0.510097 16.5962 1.85788 15.5098 2.99155L16.5845 4.02136ZM16.5593 2.96654C15.5181 1.97882 13.7426 0.587089 11.3891 0.145871C8.99052 -0.303783 6.121 0.257183 2.97941 2.94086L3.94616 4.07256C6.79403 1.63979 9.21793 1.25319 11.1148 1.60879C13.0567 1.97284 14.5787 3.1392 15.535 4.04638L16.5593 2.96654ZM2.97941 2.94086C0.931653 4.69014 0.096966 6.74127 0.00805437 8.79642C-0.0794941 10.8201 0.556437 12.7992 1.35333 14.4616L2.69548 13.8182C1.95384 12.2711 1.42219 10.5455 1.49507 8.86076C1.56659 7.20756 2.22036 5.54681 3.94616 4.07256L2.97941 2.94086ZM28.1194 4.04637C31.2475 7.01396 30.8722 10.7306 29.4672 13.8329L30.8231 14.4469C32.3557 11.0625 32.9298 6.55827 29.1437 2.96655L28.1194 4.04637ZM2.0244 14.8841H16.0848V13.3957H2.0244V14.8841ZM16.0848 14.8841H30.1452V13.3957H16.0848V14.8841Z" fill="#C7E0F2"/>
</svg>
