<svg width="36" height="36" viewBox="0 0 36 36" fill="none" xmlns="http://www.w3.org/2000/svg">
<path d="M17.9046 10.6035C13.4601 10.6035 9.77759 14.2226 9.77759 18.7305C9.77759 23.2384 13.3966 26.8575 17.9046 26.8575C22.4125 26.8575 26.0316 23.1749 26.0316 18.7305C26.0316 14.2861 22.349 10.6035 17.9046 10.6035ZM17.9046 23.9368C15.0474 23.9368 12.6982 21.5876 12.6982 18.7305C12.6982 15.8734 15.0474 13.5241 17.9046 13.5241C20.7617 13.5241 23.1109 15.8734 23.1109 18.7305C23.1109 21.5876 20.7617 23.9368 17.9046 23.9368Z" fill="white"/>
<path d="M26.3488 12.2543C27.3657 12.2543 28.1901 11.43 28.1901 10.413C28.1901 9.39614 27.3657 8.57178 26.3488 8.57178C25.3319 8.57178 24.5076 9.39614 24.5076 10.413C24.5076 11.43 25.3319 12.2543 26.3488 12.2543Z" fill="white"/>
<path d="M31.1111 5.65103C29.4603 3.93674 27.1111 3.04785 24.4444 3.04785H11.365C5.84123 3.04785 2.15869 6.73039 2.15869 12.2542V25.2701C2.15869 28.0002 3.04758 30.3494 4.82536 32.0637C6.53964 33.7145 8.82536 34.5399 11.4285 34.5399H24.3809C27.1111 34.5399 29.3968 33.651 31.0476 32.0637C32.7619 30.4129 33.6508 28.0637 33.6508 25.3336V12.2542C33.6508 9.58753 32.7619 7.30182 31.1111 5.65103ZM30.8571 25.3336C30.8571 27.3018 30.1587 28.8891 29.0158 29.9685C27.873 31.0479 26.2857 31.6193 24.3809 31.6193H11.4285C9.52377 31.6193 7.93647 31.0479 6.79361 29.9685C5.65076 28.8256 5.07933 27.2383 5.07933 25.2701V12.2542C5.07933 10.3494 5.65076 8.76214 6.79361 7.61928C7.87298 6.53992 9.52377 5.96849 11.4285 5.96849H24.5079C26.4127 5.96849 28 6.53992 29.1428 7.68277C30.2222 8.82563 30.8571 10.4129 30.8571 12.2542V25.3336Z" fill="white"/>
</svg>
