<svg width="29" height="31" viewBox="0 0 29 31" fill="none" xmlns="http://www.w3.org/2000/svg">
<path d="M14.5419 3.35998L14.017 3.88674C14.1607 4.02996 14.3567 4.10823 14.5596 4.1034C14.7624 4.09857 14.9545 4.01106 15.0912 3.86117L14.5419 3.35998ZM24.809 17.3603L25.3339 17.8871L25.3527 17.8684L25.3701 17.8483L24.809 17.3603ZM17.2437 25.4373H17.9874H17.2437ZM14.5419 18.4373L15.0668 17.9105C14.7767 17.6215 14.3075 17.6213 14.0173 17.9102L14.5419 18.4373ZM3.19401 3.36022L3.69064 3.9137V3.9137L3.19401 3.36022ZM4.27475 17.3603L4.86882 16.913L4.27475 17.3603ZM15.0912 3.86117C15.9077 2.96619 17.4153 1.88701 19.2336 1.57561C21.0023 1.27267 23.1496 1.6793 25.3648 3.88673L26.4146 2.83323C23.8746 0.302158 21.2485 -0.278401 18.9825 0.109697C16.766 0.48932 14.9773 1.77939 13.9925 2.85879L15.0912 3.86117ZM25.3648 3.88673C27.5179 6.0322 27.8164 8.57588 27.2848 10.966C26.7464 13.3866 25.3601 15.5935 24.2479 16.8723L25.3701 17.8483C26.5995 16.4348 28.1312 14.0108 28.7366 11.2889C29.3488 8.53656 29.0168 5.42626 26.4146 2.83323L25.3648 3.88673ZM24.2841 16.8336C23.8882 17.2281 23.5692 17.8327 23.3467 18.6807C23.1229 19.5337 22.9846 20.6783 22.9846 22.2065H24.4719C24.4719 20.759 24.6038 19.7497 24.7852 19.0582C24.968 18.3617 25.1894 18.0311 25.3339 17.8871L24.2841 16.8336ZM22.9846 22.2065C22.9846 23.5099 22.3766 25.2579 21.4766 26.6975C21.0315 27.4094 20.5382 28.0078 20.0547 28.4193C19.5579 28.8421 19.1511 29.0014 18.8649 29.0014V30.4887C19.6594 30.4887 20.4009 30.0776 21.0186 29.5519C21.6496 29.0149 22.237 28.2867 22.7377 27.4859C23.729 25.9002 24.4719 23.8789 24.4719 22.2065H22.9846ZM18.8649 29.0014C18.72 29.0014 18.6112 28.951 18.4882 28.7779C18.344 28.575 18.2216 28.2471 18.1353 27.8115C17.9637 26.9444 17.9874 25.9534 17.9874 25.4373H16.5001C16.5001 25.8938 16.4698 27.0567 16.6764 28.1003C16.7793 28.62 16.9541 29.1867 17.2759 29.6395C17.619 30.1222 18.1451 30.4887 18.8649 30.4887V29.0014ZM17.9874 25.4373C17.9874 23.1682 17.4175 20.2529 15.0668 17.9105L14.017 18.964C15.9893 20.9293 16.5001 23.3988 16.5001 25.4373H17.9874ZM15.0667 2.83322C14.1266 1.89648 12.5117 0.563516 10.3615 0.140107C8.15955 -0.293489 5.5425 0.253841 2.69738 2.80674L3.69064 3.9137C6.24645 1.6204 8.40271 1.27021 10.0741 1.59934C11.7973 1.93866 13.1558 3.02868 14.017 3.88674L15.0667 2.83322ZM2.69738 2.80674C-0.2491 5.45058 -0.372175 8.74451 0.409576 11.5473C1.18254 14.3185 2.85657 16.7131 3.68069 17.8076L4.86882 16.913C4.07121 15.8537 2.53771 13.6414 1.84215 11.1477C1.15538 8.68547 1.3028 6.05628 3.69064 3.9137L2.69738 2.80674ZM3.68069 17.8076C4.11509 18.3846 4.60851 19.5633 4.60893 22.7451L6.09618 22.7449C6.09575 19.4651 5.59904 17.8829 4.86882 16.913L3.68069 17.8076ZM4.60893 22.7451C4.60901 23.4137 4.81249 24.2177 5.11321 25.011C5.41903 25.8177 5.84761 26.6711 6.34688 27.4529C6.84399 28.2314 7.42786 28.9652 8.0541 29.5136C8.66323 30.047 9.40859 30.4887 10.2159 30.4887V29.0014C9.94229 29.0014 9.53928 28.8373 9.0339 28.3947C8.54562 27.9672 8.04882 27.3548 7.60037 26.6525C7.15407 25.9536 6.77218 25.1915 6.50389 24.4838C6.23051 23.7627 6.09623 23.1532 6.09618 22.7449L4.60893 22.7451ZM10.2159 30.4887C10.863 30.4887 11.3713 30.2053 11.7278 29.771C12.0601 29.3664 12.2459 28.8523 12.3589 28.3647C12.5843 27.3913 12.5807 26.2244 12.5807 25.4373H11.0934C11.0934 26.2657 11.0898 27.2527 10.9099 28.0292C10.8202 28.4166 10.7022 28.6765 10.5784 28.8272C10.479 28.9483 10.3794 29.0014 10.2159 29.0014V30.4887ZM12.5807 25.4373C12.5807 24.073 12.5832 21.4357 15.0664 18.9643L14.0173 17.9102C11.09 20.8235 11.0934 23.9918 11.0934 25.4373H12.5807Z" fill="black"/>
</svg>
