<svg width="29" height="31" viewBox="0 0 29 31" fill="none" xmlns="http://www.w3.org/2000/svg">
<path d="M14.5313 3.25364L14.005 3.7818C14.1491 3.9254 14.3457 4.00387 14.549 3.99903C14.7524 3.99418 14.945 3.90645 15.0821 3.75615L14.5313 3.25364ZM25.9093 3.25364L26.4355 2.72549L25.9093 3.25364ZM24.8256 17.2911L25.3519 17.8193L25.3708 17.8005L25.3882 17.7804L24.8256 17.2911ZM17.2403 25.3895H17.9859H17.2403ZM14.5313 18.3709L15.0576 17.8428C14.7667 17.553 14.2963 17.5528 14.0053 17.8424L14.5313 18.3709ZM3.15333 3.25388L3.65128 3.80882V3.80882L3.15333 3.25388ZM4.23694 17.2911L4.83258 16.8426L4.23694 17.2911ZM14.392 2.1076C14.0801 1.83873 13.6093 1.87361 13.3405 2.1855C13.0716 2.49739 13.1065 2.96819 13.4184 3.23706L14.392 2.1076ZM11.4531 1.94729C11.8272 2.1194 12.27 1.95565 12.4421 1.58156C12.6142 1.20747 12.4504 0.764687 12.0763 0.592584L11.4531 1.94729ZM10.2774 0.0132245C9.87273 -0.0627832 9.48303 0.203681 9.40702 0.608388C9.33102 1.0131 9.59748 1.40279 10.0022 1.4788L10.2774 0.0132245ZM7.7482 1.51372C8.15078 1.42715 8.40695 1.03061 8.32038 0.628034C8.23381 0.225454 7.83728 -0.0307212 7.4347 0.0558501L7.7482 1.51372ZM5.66032 0.658002C5.28681 0.83136 5.12455 1.27469 5.29791 1.6482C5.47127 2.02171 5.9146 2.18397 6.28811 2.01061L5.66032 0.658002ZM4.27338 3.28201C4.59551 3.0255 4.64871 2.55642 4.3922 2.23429C4.13569 1.91216 3.66661 1.85896 3.34448 2.11547L4.27338 3.28201ZM2.04831 3.29468C1.76807 3.59639 1.78547 4.06816 2.08718 4.3484C2.38889 4.62864 2.86066 4.61124 3.1409 4.30953L2.04831 3.29468ZM1.9758 6.04308C2.14473 5.66754 1.97725 5.22616 1.60171 5.05723C1.22618 4.88829 0.7848 5.05577 0.615865 5.43131L1.9758 6.04308ZM0.09486 7.08087C0.0168223 7.48519 0.281327 7.87622 0.685648 7.95426C1.08997 8.03229 1.481 7.76779 1.55904 7.36347L0.09486 7.08087ZM1.48693 9.47453C1.44304 9.06509 1.07556 8.76875 0.666119 8.81263C0.25668 8.85651 -0.0396627 9.224 0.00421799 9.63344L1.48693 9.47453ZM0.311175 11.2768C0.415783 11.675 0.82345 11.9131 1.22172 11.8085C1.62 11.7039 1.85806 11.2962 1.75345 10.8979L0.311175 11.2768ZM2.50376 12.9822C2.33434 12.6069 1.89275 12.44 1.51743 12.6094C1.14211 12.7788 0.975198 13.2204 1.14461 13.5957L2.50376 12.9822ZM1.87746 15.0462C2.07816 15.4057 2.53234 15.5345 2.8919 15.3338C3.25147 15.1331 3.38025 14.6789 3.17955 14.3194L1.87746 15.0462ZM4.38839 16.2334C4.15108 15.8969 3.6859 15.8164 3.34937 16.0537C3.01284 16.291 2.9324 16.7562 3.16971 17.0927L4.38839 16.2334ZM4.06259 18.5346C4.20669 18.9203 4.63622 19.1162 5.02196 18.9721C5.40771 18.828 5.6036 18.3985 5.4595 18.0128L4.06259 18.5346ZM6.04046 21.5411C6.02331 21.1296 5.67588 20.81 5.26445 20.8272C4.85302 20.8443 4.5334 21.1917 4.55055 21.6032L6.04046 21.5411ZM4.70474 23.7484C4.79547 24.1501 5.19463 24.4021 5.59629 24.3114C5.99796 24.2207 6.25002 23.8215 6.15928 23.4198L4.70474 23.7484ZM7.07363 25.7538C6.88061 25.39 6.42927 25.2516 6.06552 25.4446C5.70178 25.6376 5.56338 26.089 5.7564 26.4527L7.07363 25.7538ZM6.77066 28.077C7.01439 28.4089 7.48104 28.4804 7.81294 28.2367C8.14484 27.9929 8.21632 27.5263 7.97258 27.1944L6.77066 28.077ZM9.66403 28.8133C9.29628 28.628 8.84797 28.7759 8.6627 29.1437C8.47743 29.5114 8.62537 29.9597 8.99312 30.145L9.66403 28.8133ZM11.6477 29.8071C11.9225 29.5004 11.8966 29.0291 11.5899 28.7543C11.2832 28.4795 10.8118 28.5054 10.537 28.8121L11.6477 29.8071ZM11.0629 26.381C11.0501 26.7926 11.3734 27.1366 11.785 27.1494C12.1966 27.1622 12.5406 26.8388 12.5534 26.4273L11.0629 26.381ZM12.5751 24.642C12.5903 24.2305 12.269 23.8846 11.8575 23.8694C11.446 23.8543 11.1001 24.1755 11.0849 24.5871L12.5751 24.642ZM11.4524 22.1189C11.3418 22.5156 11.5736 22.9268 11.9703 23.0374C12.3669 23.148 12.7782 22.9161 12.8888 22.5195L11.4524 22.1189ZM13.3899 21.198C13.5704 20.8278 13.4167 20.3815 13.0465 20.201C12.6764 20.0205 12.2301 20.1743 12.0496 20.5444L13.3899 21.198ZM13.4376 18.4515C13.1686 18.7633 13.2033 19.2341 13.5151 19.5031C13.8269 19.7721 14.2977 19.7374 14.5667 19.4256L13.4376 18.4515ZM14.4855 19.4205C14.7512 19.7351 15.2216 19.7747 15.5362 19.509C15.8508 19.2433 15.8904 18.7729 15.6247 18.4583L14.4855 19.4205ZM16.9767 20.57C16.802 20.1972 16.358 20.0366 15.9852 20.2113C15.6123 20.3861 15.4517 20.83 15.6265 21.2029L16.9767 20.57ZM16.1203 22.5358C16.2317 22.9323 16.6434 23.1633 17.0399 23.0518C17.4363 22.9404 17.6673 22.5286 17.5558 22.1322L16.1203 22.5358ZM17.9609 24.5714C17.9355 24.1604 17.5817 23.8478 17.1707 23.8732C16.7597 23.8987 16.4471 24.2524 16.4726 24.6634L17.9609 24.5714ZM16.5026 26.4244C16.516 26.8359 16.8604 27.1588 17.272 27.1455C17.6835 27.1322 18.0064 26.7877 17.9931 26.3761L16.5026 26.4244ZM18.5408 28.8063C18.2707 28.4955 17.7997 28.4625 17.4889 28.7326C17.1781 29.0027 17.1451 29.4737 17.4152 29.7845L18.5408 28.8063ZM19.7432 30.2933C20.1305 30.1537 20.3314 29.7265 20.1917 29.3391C20.0521 28.9517 19.6248 28.7509 19.2375 28.8905L19.7432 30.2933ZM20.4858 27.9704C20.2037 28.2704 20.2181 28.7422 20.518 29.0244C20.8179 29.3066 21.2897 29.2922 21.5719 28.9923L20.4858 27.9704ZM22.44 27.9121C22.675 27.574 22.5914 27.1094 22.2533 26.8743C21.9152 26.6393 21.4506 26.7229 21.2155 27.061L22.44 27.9121ZM22.1083 25.5094C21.9322 25.8816 22.0913 26.3261 22.4635 26.5022C22.8358 26.6783 23.2803 26.5192 23.4563 26.147L22.1083 25.5094ZM23.9701 24.8903C24.1046 24.5011 23.898 24.0766 23.5088 23.9422C23.1196 23.8077 22.6951 24.0142 22.5606 24.4035L23.9701 24.8903ZM22.9637 22.703C22.9176 23.1122 23.212 23.4813 23.6212 23.5274C24.0304 23.5734 24.3995 23.2791 24.4455 22.8699L22.9637 22.703ZM24.5098 21.1702C24.5294 20.7589 24.2118 20.4095 23.8005 20.39C23.3892 20.3704 23.0398 20.688 23.0203 21.0993L24.5098 21.1702ZM23.6046 17.8678C23.4494 18.2492 23.6328 18.6843 24.0142 18.8395C24.3956 18.9947 24.8306 18.8113 24.9858 18.4299L23.6046 17.8678ZM25.9074 17.1445C26.1584 16.8181 26.0973 16.35 25.7709 16.099C25.4444 15.8479 24.9763 15.9091 24.7253 16.2355L25.9074 17.1445ZM25.9416 14.3786C25.7415 14.7385 25.8712 15.1925 26.2311 15.3925C26.591 15.5926 27.045 15.4629 27.245 15.103L25.9416 14.3786ZM27.9653 13.6408C28.1281 13.2626 27.9535 12.8239 27.5753 12.6611C27.1971 12.4982 26.7585 12.6728 26.5956 13.051L27.9653 13.6408ZM27.2881 10.9676C27.1953 11.3688 27.4453 11.7692 27.8465 11.862C28.2477 11.9548 28.6482 11.7048 28.741 11.3036L27.2881 10.9676ZM28.9977 9.65894C29.0298 9.24841 28.7231 8.88957 28.3126 8.85744C27.902 8.82532 27.5432 9.13207 27.5111 9.5426L28.9977 9.65894ZM27.3954 7.42673C27.4765 7.83045 27.8695 8.09201 28.2732 8.01094C28.6769 7.92987 28.9385 7.53686 28.8574 7.13314L27.3954 7.42673ZM28.3512 5.50423C28.1887 5.12584 27.7503 4.95077 27.3719 5.11321C26.9935 5.27564 26.8185 5.71407 26.9809 6.09246L28.3512 5.50423ZM25.8679 4.30769C26.1336 4.62231 26.604 4.66198 26.9186 4.39631C27.2333 4.13063 27.2729 3.66021 27.0073 3.3456L25.8679 4.30769ZM25.7645 2.10277C25.4524 1.83408 24.9816 1.86922 24.713 2.18126C24.4443 2.49331 24.4794 2.96408 24.7914 3.23278L25.7645 2.10277ZM22.8211 1.94551C23.1958 2.11629 23.638 1.95098 23.8088 1.57628C23.9796 1.20158 23.8142 0.759382 23.4395 0.588604L22.8211 1.94551ZM21.6391 0.0130678C21.2344 -0.0632035 20.8445 0.203006 20.7683 0.607664C20.692 1.01232 20.9582 1.40219 21.3629 1.47846L21.6391 0.0130678ZM19.0852 1.49211C19.4893 1.41291 19.7527 1.02112 19.6735 0.617023C19.5943 0.21293 19.2025 -0.0504442 18.7984 0.0287615L19.0852 1.49211ZM17.0082 0.597675C16.6317 0.764468 16.4617 1.20489 16.6285 1.58138C16.7953 1.95787 17.2357 2.12786 17.6122 1.96107L17.0082 0.597675ZM15.635 3.21932C15.9458 2.9492 15.9788 2.47827 15.7087 2.16746C15.4386 1.85665 14.9676 1.82366 14.6568 2.09377L15.635 3.21932ZM15.0576 2.72548C14.8623 2.53088 14.64 2.32137 14.392 2.1076L13.4184 3.23706C13.6353 3.42408 13.8312 3.60864 14.005 3.7818L15.0576 2.72548ZM12.0763 0.592584C11.5289 0.340756 10.9278 0.135365 10.2774 0.0132245L10.0022 1.4788C10.5179 1.57566 11.0025 1.73998 11.4531 1.94729L12.0763 0.592584ZM7.4347 0.0558501C6.8589 0.17967 6.26671 0.37656 5.66032 0.658002L6.28811 2.01061C6.79845 1.77375 7.28547 1.61323 7.7482 1.51372L7.4347 0.0558501ZM3.34448 2.11547C3.11621 2.29724 2.88649 2.49156 2.65538 2.69893L3.65128 3.80882C3.86146 3.62023 4.06886 3.44487 4.27338 3.28201L3.34448 2.11547ZM2.65538 2.69893C2.43878 2.89328 2.2366 3.09197 2.04831 3.29468L3.1409 4.30953C3.29756 4.14087 3.46739 3.97382 3.65128 3.80882L2.65538 2.69893ZM0.615865 5.43131C0.371761 5.97394 0.201912 6.52622 0.09486 7.08087L1.55904 7.36347C1.64522 6.91692 1.78123 6.47558 1.9758 6.04308L0.615865 5.43131ZM0.00421799 9.63344C0.0642068 10.1932 0.171044 10.7432 0.311175 11.2768L1.75345 10.8979C1.62985 10.4274 1.538 9.95111 1.48693 9.47453L0.00421799 9.63344ZM1.14461 13.5957C1.37609 14.1086 1.62545 14.5947 1.87746 15.0462L3.17955 14.3194C2.94532 13.8997 2.7156 13.4515 2.50376 12.9822L1.14461 13.5957ZM3.16971 17.0927C3.34409 17.34 3.50386 17.5571 3.64131 17.7396L4.83258 16.8426C4.70278 16.6703 4.55235 16.4659 4.38839 16.2334L3.16971 17.0927ZM3.64131 17.7396C3.78406 17.9292 3.92971 18.1789 4.06259 18.5346L5.4595 18.0128C5.27949 17.5309 5.0666 17.1534 4.83258 16.8426L3.64131 17.7396ZM4.55055 21.6032C4.56451 21.9378 4.57195 22.2993 4.572 22.6902L6.0632 22.69C6.06315 22.2804 6.05535 21.8982 6.04046 21.5411L4.55055 21.6032ZM4.572 22.6902C4.57205 23.024 4.62237 23.3838 4.70474 23.7484L6.15928 23.4198C6.09307 23.1267 6.06323 22.8814 6.0632 22.69L4.572 22.6902ZM5.7564 26.4527C6.0547 27.0149 6.39797 27.5695 6.77066 28.077L7.97258 27.1944C7.64671 26.7506 7.34131 26.2582 7.07363 25.7538L5.7564 26.4527ZM8.99312 30.145C9.36094 30.3303 9.76701 30.4543 10.1939 30.4543V28.9631C10.0574 28.9631 9.88183 28.923 9.66403 28.8133L8.99312 30.145ZM10.1939 30.4543C10.8006 30.4543 11.2911 30.2052 11.6477 29.8071L10.537 28.8121C10.4464 28.9133 10.352 28.9631 10.1939 28.9631V30.4543ZM12.5534 26.4273C12.5649 26.0541 12.5649 25.6961 12.5649 25.3895H11.0737C11.0737 25.6987 11.0736 26.0344 11.0629 26.381L12.5534 26.4273ZM12.5649 25.3895C12.5649 25.1659 12.5649 24.918 12.5751 24.642L11.0849 24.5871C11.0736 24.8939 11.0737 25.1672 11.0737 25.3895H12.5649ZM12.8888 22.5195C13.0071 22.0952 13.1688 21.6515 13.3899 21.198L12.0496 20.5444C11.7857 21.0855 11.593 21.6146 11.4524 22.1189L12.8888 22.5195ZM14.5667 19.4256C14.718 19.2502 14.8812 19.0746 15.0572 18.8994L14.0053 17.8424C13.8028 18.044 13.6138 18.2473 13.4376 18.4515L14.5667 19.4256ZM14.005 18.8991C14.1762 19.0697 14.3362 19.2437 14.4855 19.4205L15.6247 18.4583C15.448 18.249 15.2591 18.0436 15.0576 17.8428L14.005 18.8991ZM15.6265 21.2029C15.8326 21.6427 15.9948 22.0894 16.1203 22.5358L17.5558 22.1322C17.4099 21.6132 17.2201 21.0892 16.9767 20.57L15.6265 21.2029ZM16.4726 24.6634C16.4878 24.9108 16.4947 25.1533 16.4947 25.3895H17.9859C17.9859 25.1244 17.9782 24.8511 17.9609 24.5714L16.4726 24.6634ZM16.4947 25.3895C16.4947 25.6056 16.4886 25.9896 16.5026 26.4244L17.9931 26.3761C17.98 25.9734 17.9859 25.6336 17.9859 25.3895H16.4947ZM17.4152 29.7845C17.7621 30.1836 18.2489 30.4543 18.8658 30.4543V28.9631C18.7309 28.9631 18.6391 28.9195 18.5408 28.8063L17.4152 29.7845ZM18.8658 30.4543C19.1695 30.4543 19.4643 30.3938 19.7432 30.2933L19.2375 28.8905C19.0939 28.9422 18.9706 28.9631 18.8658 28.9631V30.4543ZM21.5719 28.9923C21.8772 28.6678 22.1684 28.3027 22.44 27.9121L21.2155 27.061C20.9798 27.4001 20.7341 27.7066 20.4858 27.9704L21.5719 28.9923ZM23.4563 26.147C23.6506 25.7361 23.8238 25.3139 23.9701 24.8903L22.5606 24.4035C22.4328 24.7735 22.2804 25.1454 22.1083 25.5094L23.4563 26.147ZM24.4455 22.8699C24.4729 22.6269 24.4876 22.3862 24.4876 22.1502H22.9964C22.9964 22.3246 22.9855 22.5094 22.9637 22.703L24.4455 22.8699ZM24.4876 22.1502C24.4876 21.7988 24.4954 21.4727 24.5098 21.1702L23.0203 21.0993C23.0046 21.4272 22.9964 21.777 22.9964 22.1502H24.4876ZM24.9858 18.4299C25.1207 18.0987 25.2552 17.9157 25.3519 17.8193L24.2993 16.763C24.0284 17.033 23.7952 17.3996 23.6046 17.8678L24.9858 18.4299ZM25.3882 17.7804C25.5577 17.5855 25.7318 17.3729 25.9074 17.1445L24.7253 16.2355C24.5671 16.4412 24.412 16.6306 24.263 16.8018L25.3882 17.7804ZM27.245 15.103C27.5008 14.6427 27.7446 14.1531 27.9653 13.6408L26.5956 13.051C26.3962 13.5141 26.1749 13.9587 25.9416 14.3786L27.245 15.103ZM28.741 11.3036C28.8649 10.7678 28.954 10.2176 28.9977 9.65894L27.5111 9.5426C27.4737 10.0203 27.397 10.4969 27.2881 10.9676L28.741 11.3036ZM28.8574 7.13314C28.7476 6.58622 28.5817 6.04126 28.3512 5.50423L26.9809 6.09246C27.1692 6.5311 27.3051 6.977 27.3954 7.42673L28.8574 7.13314ZM27.0073 3.3456C26.8297 3.1353 26.6393 2.92849 26.4355 2.72549L25.383 3.78179C25.5571 3.95527 25.7185 4.1307 25.8679 4.30769L27.0073 3.3456ZM26.4355 2.72549C26.2127 2.50347 25.989 2.29608 25.7645 2.10277L24.7914 3.23278C24.9876 3.40168 25.1849 3.5844 25.383 3.78179L26.4355 2.72549ZM23.4395 0.588604C22.8328 0.312046 22.2305 0.124552 21.6391 0.0130678L21.3629 1.47846C21.8353 1.56751 22.3226 1.71833 22.8211 1.94551L23.4395 0.588604ZM18.7984 0.0287615C18.1596 0.153969 17.5596 0.353386 17.0082 0.597675L17.6122 1.96107C18.0727 1.75707 18.5665 1.59379 19.0852 1.49211L18.7984 0.0287615ZM14.6568 2.09377C14.4043 2.31318 14.1778 2.53486 13.9805 2.75112L15.0821 3.75615C15.2388 3.58435 15.4239 3.40274 15.635 3.21932L14.6568 2.09377Z" fill="black"/>
</svg>
