<svg width="122" height="46" viewBox="0 0 122 46" fill="none" xmlns="http://www.w3.org/2000/svg">
<g clip-path="url(#clip0_0_198)">
<rect width="121.983" height="45.6338" fill="#4D2C19"/>
<path d="M88.4948 45.7364V38.6637H89.9305V44.5349H93.5006V45.7364H88.4948Z" fill="#FFEFE2"/>
<path d="M83.9097 45.7401H82.3474L81.7265 44.1203H78.8842L78.2973 45.7401H76.7743L79.5439 38.609H81.0621L83.9097 45.7401ZM81.2657 42.9188L80.286 40.2726L79.3254 42.9188H81.2657Z" fill="#FFEFE2"/>
<path d="M69.9845 45.7401V39.8153H67.8746V38.609H73.5253V39.8153H71.4203V45.7401H69.9845Z" fill="#FFEFE2"/>
<path d="M57.4357 45.7401V38.609H58.8326L61.743 43.3712V38.609H63.0773V45.7401H61.6367L58.7699 41.0898V45.7401H57.4357Z" fill="#FFEFE2"/>
<path d="M47.0435 45.7401V38.609H52.3162V39.8153H48.4793V41.3962H52.0494V42.5977H48.4793V44.5386H52.452V45.7401H47.0435Z" fill="#FFEFE2"/>
<path d="M36.0811 38.609H38.7052C39.297 38.609 39.7481 38.6544 40.0586 38.7452C40.4758 38.8684 40.8331 39.0873 41.1306 39.4019C41.4281 39.7164 41.6545 40.1024 41.8097 40.5596C41.9649 41.0136 42.0425 41.5746 42.0425 42.2426C42.0425 42.8296 41.9698 43.3355 41.8242 43.7603C41.6464 44.2792 41.3925 44.6991 41.0627 45.0202C40.8137 45.2634 40.4774 45.4531 40.0537 45.5893C39.7368 45.6898 39.3132 45.7401 38.7829 45.7401H36.0811V38.609ZM37.5168 39.8153V44.5386H38.5888C38.9898 44.5386 39.2793 44.5159 39.4571 44.4705C39.6899 44.4121 39.8823 44.3132 40.0343 44.1738C40.1896 44.0343 40.3157 43.8057 40.4127 43.4879C40.5097 43.1669 40.5582 42.7307 40.5582 42.1794C40.5582 41.6281 40.5097 41.2049 40.4127 40.9098C40.3157 40.6147 40.1799 40.3845 40.0052 40.2191C39.8306 40.0537 39.6091 39.9418 39.3407 39.8834C39.1402 39.838 38.7473 39.8153 38.162 39.8153H37.5168Z" fill="#FFEFE2"/>
<path d="M10.8685 9.65847C12.2753 8.61057 14.1575 8.23319 15.9558 8.2121C17.6873 8.2121 19.4856 8.49565 20.9591 9.35004C21.8431 9.87303 22.6154 10.67 22.7402 11.6413C22.8456 12.421 22.7272 13.3424 21.998 13.8692C21.2408 14.375 20.2449 14.4555 19.3264 14.4612C19.3135 13.4018 19.2232 12.2869 18.636 11.3405C18.2488 10.7102 17.5346 10.239 16.7301 10.1432C15.6309 10.0033 14.4307 10.1872 13.5401 10.806C12.5485 11.5416 12.0538 12.6604 11.7483 13.7466C11.26 15.5474 11.1998 17.4133 11.2148 19.2582C11.2471 20.7218 11.3977 22.2046 11.9311 23.5992C12.2947 24.5341 12.8776 25.446 13.809 26.0169C15.0007 26.764 16.5365 26.9057 17.9498 26.7602C19.7201 26.5743 21.3484 25.5724 22.1658 24.1624C22.8369 24.7448 22.9574 25.6855 22.6498 26.446C22.3336 27.2602 21.6044 27.8885 20.787 28.3196C19.5114 28.9824 18.0207 29.2449 16.5559 29.2678C14.9533 29.3043 13.3143 29.0322 11.9075 28.3291C10.4555 27.5954 9.37355 26.377 8.71318 25.0264C7.728 23.0513 7.48063 20.8598 7.49139 18.7198C7.50644 16.8674 7.66992 14.988 8.33029 13.2198C8.82288 11.8712 9.62307 10.5704 10.8728 9.66231L10.8685 9.65847Z" fill="#E9811F"/>
<path d="M27.1728 2.07427C27.1577 1.53978 27.147 1.0053 27.1771 0.472723C29.597 0.495712 32.0169 0.46506 34.439 0.489964C34.4283 8.51494 34.439 16.5399 34.4347 24.5668C34.4304 25.3159 34.4283 26.1281 34.9122 26.7775C35.2586 27.2699 35.8953 27.5381 36.5255 27.6109C37.0353 27.678 37.5516 27.6894 38.0657 27.6703C38.1001 28.2029 38.0743 28.7373 38.0786 29.2699C34.4541 29.268 30.8274 29.2776 27.2029 29.2642L27.1663 29.2335C27.1491 28.7163 27.1663 28.1952 27.162 27.676C28.0676 27.6664 29.0722 27.7201 29.8465 27.2258C30.6016 26.722 30.8124 25.8254 30.808 25.0304C30.808 18.2085 30.808 11.3866 30.808 4.56663C30.8167 3.81566 30.5886 2.97849 29.8724 2.51297C29.0915 2.02063 28.0805 2.07618 27.1706 2.07427H27.1728Z" fill="#E9811F"/>
<path d="M48.8303 8.24154C50.4522 8.14003 52.1321 8.28752 53.6228 8.89674C54.8683 9.39288 55.9225 10.2281 56.6751 11.2378C57.5355 12.3795 58.0409 13.7033 58.338 15.0443C58.7016 16.732 58.7485 18.4619 58.6474 20.1746C58.5358 21.8183 58.2326 23.4792 57.4905 24.9984C56.9228 26.167 56.0341 27.2264 54.8575 27.962C53.6228 28.7456 52.1193 29.1383 50.6178 29.236C48.9766 29.349 47.2794 29.19 45.7758 28.5655C44.4529 28.031 43.3516 27.1095 42.5923 26.0137C41.8136 24.8969 41.3468 23.6287 41.0693 22.3451C40.7531 20.8489 40.6865 19.3221 40.7381 17.8029C40.8069 16.2148 41.0285 14.6151 41.6221 13.1075C42.1255 11.8393 42.9343 10.6343 44.126 9.78562C45.4424 8.81435 47.1439 8.34498 48.8324 8.24154H48.8303ZM49.0153 10.2396C48.114 10.3182 47.2299 10.64 46.5738 11.2052C45.6016 12.0289 45.1434 13.2033 44.8616 14.345C44.4271 16.2627 44.4034 18.234 44.4809 20.1803C44.5777 21.734 44.7476 23.3259 45.451 24.7685C45.9156 25.7379 46.7309 26.6267 47.8602 27.0137C48.9314 27.3758 50.1403 27.3931 51.2416 27.121C52.4075 26.8317 53.3195 26.0022 53.8272 25.0444C54.6424 23.5348 54.8145 21.8336 54.9177 20.1822C54.9974 18.2167 54.9694 16.2282 54.5241 14.2952C54.223 13.0883 53.7067 11.8374 52.6011 11.0308C51.6116 10.3028 50.2607 10.1266 49.0174 10.2396H49.0153Z" fill="#E9811F"/>
<path d="M90.04 8.90568C91.4274 8.30222 93.0108 8.13744 94.54 8.24092C96.2028 8.3482 97.8609 8.91524 99.0529 9.97271C100.339 11.0954 101.051 12.6337 101.41 14.1816C101.791 15.764 101.737 17.3904 101.729 18.9996C97.4609 18.9958 93.1957 19.0111 88.93 18.9919C88.8998 19.8579 88.999 20.7257 89.1259 21.5839C89.3516 22.8886 89.7497 24.2219 90.6662 25.289C91.266 25.9978 92.1393 26.5131 93.1095 26.7219C94.8993 27.1108 96.876 26.81 98.3946 25.8733C99.0936 25.448 99.7197 24.9077 100.139 24.2487C100.472 24.3694 100.66 24.6778 100.787 24.9614C101.073 25.7257 100.703 26.5476 100.176 27.1568C99.2464 28.1989 97.814 28.7698 96.3921 29.0744C94.3871 29.4288 92.2232 29.3503 90.3519 28.5687C88.9151 27.9844 87.7404 26.9594 86.9509 25.7526C85.7293 23.8886 85.2799 21.7046 85.1999 19.5705C85.1573 18.0322 85.2411 16.4824 85.5635 14.967C85.8241 13.7697 86.2414 12.5858 86.9404 11.5302C87.6715 10.4248 88.7345 9.47273 90.04 8.9114V8.90568ZM91.1673 11.057C90.4209 11.6586 89.9734 12.49 89.6634 13.3291C89.2399 14.5015 89.0632 15.7333 88.986 16.9594C91.9395 16.9594 94.8926 16.9728 97.8442 16.9517C97.8269 15.6854 97.7388 14.4076 97.3579 13.1816C97.0805 12.3099 96.635 11.4287 95.8114 10.8578C95.1144 10.3482 94.172 10.2007 93.2925 10.262C92.5116 10.308 91.7417 10.5819 91.1649 11.057H91.1673Z" fill="#E9811F"/>
<path d="M60.9421 8.94268C64.1471 8.94455 67.3522 8.94268 70.5577 8.94268C70.5658 9.47138 70.549 9.99822 70.5682 10.527C69.8582 10.5499 69.084 10.5116 68.4689 10.8871C67.9117 11.2128 67.7416 11.8507 67.7613 12.4101C67.7742 13.1572 68.1139 13.8565 68.3525 14.5634C69.0476 16.46 69.7356 18.3565 70.4307 20.2531C70.8825 21.4638 71.2911 22.6861 71.6586 23.9179C71.9254 24.8144 72.2052 25.7129 72.371 26.6305C72.3964 26.6229 72.4524 26.6114 72.4783 26.6037C73.0699 24.7148 73.8681 22.8834 74.5603 21.0251C75.4035 18.7761 76.2448 16.5251 77.0879 14.2779C77.3783 13.5596 77.6106 12.7933 77.5076 12.0251C77.4492 11.5864 77.2173 11.14 76.7828 10.9024C76.1652 10.548 75.4078 10.5538 74.7045 10.5231C74.7304 9.9963 74.7069 9.46946 74.7175 8.94268C77.4688 8.94839 80.2178 8.94268 82.9667 8.9446C82.9581 9.47715 82.982 10.0116 82.9538 10.5442C82.354 10.5385 81.6914 10.5097 81.173 10.8239C80.6738 11.1496 80.3941 11.6611 80.1468 12.1515C79.6304 13.2205 79.2539 14.3393 78.8174 15.435C77.7678 18.1649 76.7138 20.8949 75.6641 23.6248C74.9283 25.506 74.2312 27.3987 73.4743 29.2723C72.3125 29.257 71.1512 29.2666 69.9876 29.2685C67.8815 23.6535 65.8253 18.0213 63.7323 12.4025C63.4956 11.8412 63.2201 11.2434 62.6524 10.8833C62.1575 10.5672 61.5208 10.5461 60.9359 10.5365C60.9273 10.0059 60.9229 9.47331 60.9402 8.94268H60.9421Z" fill="#E9811F"/>
<path d="M114.133 6.74217C115.013 6.74409 115.893 6.74409 116.772 6.74217C118.515 8.62918 119.971 10.7441 120.935 13.0373C121.653 14.8036 121.965 16.6886 121.976 18.5642C121.997 20.2117 121.761 21.8611 121.238 23.4435C120.373 26.1159 118.724 28.5355 116.766 30.683C115.888 30.6773 115.008 30.6773 114.131 30.683C115.968 28.4703 117.188 25.8803 117.807 23.1887C118.637 19.6216 118.463 15.8668 117.276 12.3802C116.596 10.361 115.535 8.44143 114.131 6.74217H114.133Z" fill="#FFEFE2"/>
<path d="M107.187 11.3913C108.564 11.3913 109.941 11.3913 111.317 11.3913C111.317 12.6269 111.317 13.8606 111.317 15.0963C109.939 15.0963 108.562 15.0963 107.185 15.0963C107.185 13.8626 107.185 12.6269 107.185 11.3932L107.187 11.3913Z" fill="#FFEFE2"/>
<path d="M107.132 22.0246C108.509 22.0246 109.885 22.0303 111.262 22.0227C111.262 23.2583 111.262 24.494 111.262 25.7296C109.885 25.7296 108.509 25.7296 107.132 25.7296C107.13 24.494 107.13 23.2602 107.132 22.0246Z" fill="#FFEFE2"/>
</g>
<defs>
<clipPath id="clip0_0_198">
<rect width="121.983" height="45.6338" fill="white"/>
</clipPath>
</defs>
</svg>
