<svg width="28" height="29" viewBox="0 0 28 29" fill="none" xmlns="http://www.w3.org/2000/svg">
<path d="M25.1458 2.61624C20.3908 -2.12202 15.5997 0.641963 13.7985 2.61624C11.9974 0.821522 7.85192 -2.22947 2.45125 2.61648C-2.88279 7.40265 1.9103 14.4621 3.53195 16.6159C4.11423 17.3892 4.60926 18.7696 4.60969 22.0003C4.60998 24.154 7.311 29 9.47281 29C11.0939 29 11.0939 26.3078 11.0939 24.6925V24.6918C11.0939 23.2867 11.0939 20.3845 13.7985 17.6928C15.9599 19.8465 16.5003 22.5387 16.5003 24.6925C16.5003 25.665 16.3922 29 18.1213 29C20.2827 29 22.9844 24.4374 22.9844 21.4618C22.9844 18.4862 23.5248 17.1543 24.0651 16.6159C26.4066 13.9236 29.9009 7.3545 25.1458 2.61624Z" fill="white"/>
</svg>
