<svg width="48" height="40" viewBox="0 0 48 40" fill="none" xmlns="http://www.w3.org/2000/svg">
<path d="M24 8C21.6266 8 19.3066 8.70379 17.3332 10.0224C15.3598 11.3409 13.8217 13.2151 12.9135 15.4078C12.0052 17.6005 11.7676 20.0133 12.2306 22.3411C12.6936 24.6689 13.8365 26.807 15.5147 28.4853C17.193 30.1635 19.3311 31.3064 21.6589 31.7694C23.9867 32.2324 26.3995 31.9948 28.5922 31.0865C30.7849 30.1783 32.6591 28.6402 33.9776 26.6668C35.2962 24.6934 36 22.3734 36 20C35.994 16.8193 34.7277 13.7705 32.4786 11.5214C30.2295 9.27226 27.1807 8.00604 24 8ZM27.9429 22.3429C28.1079 22.5629 28.1881 22.8352 28.1686 23.1096C28.1491 23.384 28.0312 23.6422 27.8367 23.8367C27.6422 24.0312 27.384 24.149 27.1096 24.1685C26.8352 24.1881 26.5629 24.1079 26.3429 23.9429L24 21.5971L21.6571 23.9429C21.4371 24.1079 21.1648 24.1881 20.8904 24.1685C20.616 24.149 20.3578 24.0312 20.1633 23.8367C19.9688 23.6422 19.851 23.384 19.8315 23.1096C19.8119 22.8352 19.8921 22.5629 20.0571 22.3429L22.4029 20L20.0571 17.6571C19.8921 17.4371 19.8119 17.1648 19.8315 16.8904C19.851 16.616 19.9688 16.3578 20.1633 16.1633C20.3578 15.9688 20.616 15.8509 20.8904 15.8314C21.1648 15.8119 21.4371 15.8921 21.6571 16.0571L24 18.4029L26.3429 16.0571C26.5629 15.8921 26.8352 15.8119 27.1096 15.8314C27.384 15.8509 27.6422 15.9688 27.8367 16.1633C28.0312 16.3578 28.1491 16.616 28.1686 16.8904C28.1881 17.1648 28.1079 17.4371 27.9429 17.6571L25.5971 20L27.9429 22.3429Z" fill="#DA1E28"/>
</svg>
